<svg width="153" height="35" viewBox="0 0 153 35" fill="none" xmlns="http://www.w3.org/2000/svg">
<path fill-rule="evenodd" clip-rule="evenodd" d="M14.0155 0.159355C14.3235 -0.0484148 14.7255 -0.0534005 15.0386 0.146666L29.399 9.32266L28.3952 10.8937L14.5506 2.04722L1.86433 10.6038V28.8971H0V10.1082C0 9.79826 0.154004 9.50863 0.41092 9.33535L14.0155 0.159355Z" fill="#100D0D"/>
<path d="M17.1685 29.12C16.0485 29.12 15.0005 28.896 14.0245 28.448C13.0485 28 12.1845 27.384 11.4325 26.6C10.6965 25.8 10.1205 24.872 9.7045 23.816C9.2885 22.76 9.0805 21.616 9.0805 20.384C9.0805 19.216 9.2885 18.12 9.7045 17.096C10.1205 16.056 10.7045 15.144 11.4565 14.36C12.2085 13.576 13.0885 12.96 14.0965 12.512C15.1045 12.064 16.2005 11.84 17.3845 11.84C18.9685 11.84 20.3365 12.184 21.4885 12.872C22.6405 13.544 23.5045 14.44 24.0805 15.56L21.6085 17.384C21.1765 16.552 20.5685 15.912 19.7845 15.464C19.0165 15 18.1765 14.768 17.2645 14.768C16.3045 14.768 15.4565 15.032 14.7205 15.56C14.0005 16.088 13.4325 16.784 13.0165 17.648C12.6165 18.512 12.4165 19.456 12.4165 20.48C12.4165 21.552 12.6325 22.52 13.0645 23.384C13.4965 24.248 14.0885 24.936 14.8405 25.448C15.6085 25.944 16.4805 26.192 17.4565 26.192C19.1045 26.192 20.5925 25.416 21.9205 23.864V22.664H18.4885V20.24H24.6565V29H21.9205V27.08C20.5445 28.44 18.9605 29.12 17.1685 29.12ZM34.6551 19.208C33.6791 19.208 32.8071 19.4 32.0391 19.784C31.2711 20.152 30.7191 20.688 30.3831 21.392V29H27.1671V16.424H30.1191V19.112C30.5511 18.248 31.1111 17.568 31.7991 17.072C32.5031 16.576 33.2391 16.304 34.0071 16.256C34.3431 16.256 34.5591 16.264 34.6551 16.28V19.208ZM42.1163 29.24C40.7563 29.24 39.5803 28.944 38.5883 28.352C37.6123 27.76 36.8523 26.976 36.3083 26C35.7643 25.008 35.4923 23.936 35.4923 22.784C35.4923 21.6 35.7563 20.512 36.2843 19.52C36.8283 18.512 37.5963 17.712 38.5883 17.12C39.5803 16.512 40.7643 16.208 42.1403 16.208C43.5163 16.208 44.6923 16.512 45.6683 17.12C46.6443 17.712 47.3883 18.504 47.9003 19.496C48.4283 20.472 48.6923 21.528 48.6923 22.664C48.6923 23.08 48.6683 23.44 48.6203 23.744H38.9003C38.9803 24.72 39.3403 25.488 39.9803 26.048C40.6363 26.608 41.3883 26.888 42.2363 26.888C42.8763 26.888 43.4763 26.736 44.0363 26.432C44.6123 26.112 45.0043 25.696 45.2123 25.184L47.9723 25.952C47.5083 26.912 46.7643 27.704 45.7403 28.328C44.7163 28.936 43.5083 29.24 42.1163 29.24ZM38.8283 21.704H45.4043C45.3083 20.76 44.9483 20 44.3243 19.424C43.7163 18.832 42.9723 18.536 42.0923 18.536C41.2283 18.536 40.4843 18.832 39.8603 19.424C39.2523 20 38.9083 20.76 38.8283 21.704ZM70.1875 29H66.9715V21.944C66.9715 20.952 66.7955 20.224 66.4435 19.76C66.1075 19.28 65.6355 19.04 65.0275 19.04C64.3875 19.04 63.7875 19.288 63.2275 19.784C62.6675 20.264 62.2675 20.896 62.0275 21.68V29H58.8115V21.944C58.8115 20.936 58.6355 20.2 58.2835 19.736C57.9475 19.272 57.4755 19.04 56.8675 19.04C56.2435 19.04 55.6435 19.28 55.0675 19.76C54.5075 20.24 54.1075 20.872 53.8675 21.656V29H50.6515V16.424H53.5555V18.752C54.0195 17.936 54.6515 17.312 55.4515 16.88C56.2675 16.432 57.1955 16.208 58.2355 16.208C59.2755 16.208 60.0835 16.464 60.6595 16.976C61.2515 17.488 61.6275 18.12 61.7875 18.872C62.2835 18.008 62.9315 17.352 63.7315 16.904C64.5315 16.44 65.4275 16.208 66.4195 16.208C67.2035 16.208 67.8355 16.352 68.3155 16.64C68.8115 16.912 69.1955 17.288 69.4675 17.768C69.7395 18.232 69.9235 18.76 70.0195 19.352C70.1315 19.944 70.1875 20.544 70.1875 21.152V29ZM72.9874 14.672V11.48H76.2034V14.672H72.9874ZM72.9874 29V16.424H76.2034V29H72.9874ZM85.1823 29V11.96H88.4943V29H85.1823ZM103.425 29H100.209V21.944C100.209 20.936 100.033 20.2 99.6814 19.736C99.3294 19.272 98.8414 19.04 98.2174 19.04C97.7854 19.04 97.3454 19.152 96.8974 19.376C96.4654 19.6 96.0734 19.912 95.7214 20.312C95.3694 20.696 95.1134 21.144 94.9534 21.656V29H91.7374V16.424H94.6414V18.752C95.1054 17.968 95.7774 17.352 96.6574 16.904C97.5374 16.44 98.5294 16.208 99.6334 16.208C100.417 16.208 101.057 16.352 101.553 16.64C102.049 16.912 102.433 17.288 102.705 17.768C102.977 18.232 103.161 18.76 103.257 19.352C103.369 19.944 103.425 20.544 103.425 21.152V29ZM109.395 29L104.763 16.424H108.099L111.267 26.072L114.459 16.424H117.507L112.899 29H109.395ZM124.616 29.24C123.256 29.24 122.08 28.944 121.088 28.352C120.112 27.76 119.352 26.976 118.808 26C118.264 25.008 117.992 23.936 117.992 22.784C117.992 21.6 118.256 20.512 118.784 19.52C119.328 18.512 120.096 17.712 121.088 17.12C122.08 16.512 123.264 16.208 124.64 16.208C126.016 16.208 127.192 16.512 128.168 17.12C129.144 17.712 129.888 18.504 130.4 19.496C130.928 20.472 131.192 21.528 131.192 22.664C131.192 23.08 131.168 23.44 131.12 23.744H121.4C121.48 24.72 121.84 25.488 122.48 26.048C123.136 26.608 123.888 26.888 124.736 26.888C125.376 26.888 125.976 26.736 126.536 26.432C127.112 26.112 127.504 25.696 127.712 25.184L130.472 25.952C130.008 26.912 129.264 27.704 128.24 28.328C127.216 28.936 126.008 29.24 124.616 29.24ZM121.328 21.704H127.904C127.808 20.76 127.448 20 126.824 19.424C126.216 18.832 125.472 18.536 124.592 18.536C123.728 18.536 122.984 18.832 122.36 19.424C121.752 20 121.408 20.76 121.328 21.704ZM137.784 29.24C136.712 29.24 135.688 29.064 134.712 28.712C133.736 28.36 132.896 27.84 132.192 27.152L133.344 25.064C134.096 25.672 134.832 26.12 135.552 26.408C136.272 26.696 136.976 26.84 137.664 26.84C138.288 26.84 138.784 26.728 139.152 26.504C139.536 26.28 139.728 25.944 139.728 25.496C139.728 25.032 139.496 24.72 139.032 24.56C138.568 24.384 137.92 24.168 137.088 23.912C136.16 23.624 135.384 23.328 134.76 23.024C134.136 22.72 133.664 22.352 133.344 21.92C133.04 21.488 132.888 20.928 132.888 20.24C132.888 19.008 133.352 18.024 134.28 17.288C135.208 16.552 136.44 16.184 137.976 16.184C138.872 16.184 139.72 16.328 140.52 16.616C141.32 16.888 142.048 17.336 142.704 17.96L141.408 20C140.176 19.04 138.984 18.56 137.832 18.56C137.32 18.56 136.864 18.656 136.464 18.848C136.08 19.04 135.888 19.376 135.888 19.856C135.888 20.304 136.072 20.624 136.44 20.816C136.824 21.008 137.4 21.216 138.168 21.44C139.16 21.744 140 22.04 140.688 22.328C141.392 22.616 141.92 22.984 142.272 23.432C142.64 23.88 142.824 24.488 142.824 25.256C142.824 26.504 142.368 27.48 141.456 28.184C140.544 28.888 139.32 29.24 137.784 29.24ZM152.477 28.352C152.045 28.544 151.509 28.736 150.869 28.928C150.245 29.12 149.597 29.216 148.925 29.216C148.333 29.216 147.789 29.112 147.293 28.904C146.797 28.696 146.397 28.368 146.093 27.92C145.805 27.456 145.661 26.856 145.661 26.12V18.896H144.005V16.424H145.661V12.344H148.877V16.424H151.517V18.896H148.877V25.04C148.877 25.472 148.989 25.784 149.213 25.976C149.453 26.168 149.741 26.264 150.077 26.264C150.413 26.264 150.741 26.208 151.061 26.096C151.381 25.984 151.637 25.888 151.829 25.808L152.477 28.352Z" fill="#100D0D"/>
</svg>
